# xmcd CD database file
#
# Track frame offsets:
#	150
#	10785
#	17315
#	30108
#	45593
#	55056
#	77036
#	91462
#	113029
#	126558
#	131918
#	143697
#	151410
#	165342
#	173362
#
# Disc length: 2419 seconds
#
# Revision: 1
# Processed by: cddbd v1.5.2PL0 Copyright (c) Steve Scherf et al.
# Submitted via: CDex 1.70beta2
#
DISCID=a809710f
DTITLE=Juan Pablo II - Recitate da Vittorio Gassman - Compagni di Viaggio [CD1)
DYEAR=2005
DGENRE=New Age
TTITLE0=Vittorio Gassman - Appello all'Uomo che è diventato il Corpo della storia
TTITLE1=Vittorio Gassman - Il pavimento
TTITLE2=Vittorio Gassman - Attore
TTITLE3=Vittorio Gassman - Contemplazione retrospettiva dell'incontro
TTITLE4=Vittorio Gassman - Fanciulli
TTITLE5=Vittorio Gassman - La Speranza che va oltre la fine
TTITLE6=Vittorio Gassman - Il Melanconico
TTITLE7=Vittorio Gassman - Materia
TTITLE8=Vittorio Gassman - In memoria de un compagno di lavoro
TTITLE9=Vittorio Gassman - Uomo d'intelletto
TTITLE10=Vittorio Gassman - Ciechi
TTITLE11=Vittorio Gassman - Schizoide
TTITLE12=Vittorio Gassman - Per i compagni di viaggio
TTITLE13=Vittorio Gassman - Uomo di volontà
TTITLE14=Vittorio Gassman - Descrizione dell'uomo
EXTD=YEAR: 2005
EXTT0=
EXTT1=
EXTT2=
EXTT3=
EXTT4=
EXTT5=
EXTT6=
EXTT7=
EXTT8=
EXTT9=
EXTT10=
EXTT11=
EXTT12=
EXTT13=
EXTT14=
PLAYORDER=
